<?xml version="1.0" encoding="iso-8859-1"?>
<!-- Generator: Adobe Illustrator 18.0.0, SVG Export Plug-In . SVG Version: 6.00 Build 0)  -->
<!DOCTYPE svg PUBLIC "-//W3C//DTD SVG 1.1//EN" "http://www.w3.org/Graphics/SVG/1.1/DTD/svg11.dtd">
<svg version="1.1" id="Capa_1" xmlns="http://www.w3.org/2000/svg" xmlns:xlink="http://www.w3.org/1999/xlink" x="0px" y="0px"
	 viewBox="0 0 60 60" style="enable-background:new 0 0 60 60;" xml:space="preserve">
<g>
	<path d="M55.314,19H42.27v2h11.215c0.408,6.189-1.127,12.199-2.614,18.02c-0.459,1.795-0.934,3.651-1.345,5.488l-0.29,1.31
		c-0.78,3.551-1.587,7.223-3.394,10.39c-0.608,1.065-1.232,1.691-1.647,1.632c-0.458-0.047-1.724-0.771-3.569-6.456
		c-0.633-1.949-1.411-4.437-2.313-7.395c-0.014-0.045-0.028-0.088-0.043-0.13l-0.038-0.133l-0.012,0.004
		c-0.325-0.77-0.841-0.809-1.233-0.692l-0.949,0.284l0.185,0.647c-0.458,1.259-1.194,2.735-1.742,3.834l-0.464,0.939
		c-0.699,1.44-1.57,3.232-2.978,3.649c-2.515,0.753-4.827-3.408-6.207-5.891c-0.212-0.382-0.406-0.73-0.581-1.028l-0.333-0.551
		l-0.625,0.05c-0.51,0.04-1.144,0.09-4.771,9.399c-0.64,1.642-1.239,2.96-2.512,3.607c-1.134-0.283-2.345-3.231-2.815-4.376
		l-0.121-0.294c-3.39-8.187-4.729-17.383-6.023-26.277c-0.183-1.256-0.364-2.505-0.551-3.743l-0.064-0.424
		C6.299,21.98,6.25,21.657,6.276,21H18.27v-2H4.415l-0.073,0.921c-0.126,1.597-0.091,1.9,0.115,3.246l0.064,0.418
		c0.186,1.236,0.367,2.481,0.549,3.734c1.312,9.016,2.668,18.338,6.154,26.755l0.119,0.288C12.209,56.471,13.658,60,16.181,60h0.203
		l0.187-0.079c2.314-0.98,3.18-3.201,3.813-4.823c0.952-2.443,2.211-5.369,3.006-7.074c1.699,3.027,4.402,7.413,8.216,6.286
		c2.253-0.668,3.383-2.995,4.208-4.693l0.454-0.921c0.26-0.521,0.561-1.124,0.858-1.755c0.603,1.95,1.137,3.646,1.597,5.06
		c1.21,3.728,2.782,7.573,5.267,7.829c1.312,0.134,2.515-0.751,3.588-2.631c1.958-3.432,2.798-7.254,3.61-10.951l0.288-1.302
		c0.405-1.809,0.876-3.649,1.331-5.431c1.603-6.271,3.259-12.754,2.594-19.611L55.314,19z" fill="#fff"/>
	<path d="M23.27,21.633l5.697-1.809c0.523-0.169,1.088,0.123,1.256,0.65c0.167,0.526-0.124,1.089-0.65,1.256l-6.303,2.001v3.902
		l5.697-1.809c0.523-0.169,1.088,0.123,1.256,0.65c0.167,0.526-0.124,1.089-0.65,1.256l-6.303,2.001v3.902l5.697-1.809
		c0.523-0.169,1.088,0.123,1.256,0.65c0.167,0.526-0.124,1.089-0.65,1.256l-4.303,1.366v3.236L28.77,43h3l3.5-4.667V35h2v-3.613
		l-3.684,1.228c-0.105,0.035-0.212,0.052-0.316,0.052c-0.419,0-0.809-0.265-0.949-0.684c-0.175-0.524,0.108-1.091,0.632-1.265
		l4.316-1.439v-3.892l-3.684,1.228c-0.105,0.035-0.212,0.052-0.316,0.052c-0.419,0-0.809-0.265-0.949-0.684
		c-0.175-0.524,0.108-1.091,0.632-1.265l4.316-1.439v-3.892l-3.684,1.228c-0.105,0.035-0.212,0.052-0.316,0.052
		c-0.419,0-0.809-0.265-0.949-0.684c-0.175-0.524,0.108-1.091,0.632-1.265l4.316-1.439V15h18.461l-0.106-1.097
		c-0.099-1.021-0.254-1.482-0.435-2.019c-0.087-0.26-0.188-0.559-0.304-0.995c-0.818-3.095-3.213-6.049-6.742-8.318
		C45.528,0.89,42.369,0,39.01,0c-2.379,0-4.769,0.469-6.911,1.354l-0.19,0.081c-0.095,0.041-0.188,0.082-0.286,0.116
		c-0.465,0.161-0.822,0.3-1.113,0.413c-0.521,0.202-0.711,0.272-0.904,0.272c-0.263,0-0.706-0.117-1.538-0.362
		c-2.212-0.652-5.561-1.431-8.95-1.431c-1.946,0-3.675,0.263-5.136,0.781C8.239,3.261,5.071,7.532,4.566,13.921L4.481,15H23.27
		V21.633z" fill="#fff"/>
</g>
<g>
</g>
<g>
</g>
<g>
</g>
<g>
</g>
<g>
</g>
<g>
</g>
<g>
</g>
<g>
</g>
<g>
</g>
<g>
</g>
<g>
</g>
<g>
</g>
<g>
</g>
<g>
</g>
<g>
</g>
</svg>
