<?xml version="1.0" encoding="iso-8859-1"?>
<!-- Generator: Adobe Illustrator 18.0.0, SVG Export Plug-In . SVG Version: 6.00 Build 0)  -->
<!DOCTYPE svg PUBLIC "-//W3C//DTD SVG 1.1//EN" "http://www.w3.org/Graphics/SVG/1.1/DTD/svg11.dtd">
<svg version="1.1" id="Capa_1" xmlns="http://www.w3.org/2000/svg" xmlns:xlink="http://www.w3.org/1999/xlink" x="0px" y="0px"
	 viewBox="0 0 60 60" style="enable-background:new 0 0 60 60;" xml:space="preserve">
<path d="M59,9.852h-8.664l-4.143,9.839c0.357-2.899,0.371-5.794-0.344-8.498c-0.544-2.054-2.121-4.008-4.441-5.5
	c-2.867-1.843-6.902-2.052-10.533-0.548l-0.131,0.056c-0.049,0.021-0.097,0.043-0.153,0.063c-0.301,0.104-0.531,0.193-0.72,0.267
	c-0.468,0.183-0.468,0.184-1.317-0.066c-2.81-0.828-6.391-1.651-9.178-0.663c-5.25,1.86-6.853,7.667-6.111,12.596
	c0.118,0.781,0.232,1.569,0.348,2.361c0.138,0.947,0.279,1.901,0.425,2.855L8.664,9.852H1c-0.553,0-1,0.447-1,1s0.447,1,1,1h6.336
	l5.737,13.626c-2.409-1.68-5.308-2.626-8.351-2.626c-0.017,0-0.032,0-0.048,0c-1.178,0.004-2.253,0.557-2.95,1.518
	s-0.896,2.207-0.533,3.333l5.663,17.557c2.044,6.336,7.89,10.593,14.547,10.593h17.197c6.657,0,12.503-4.257,14.547-10.593
	l5.662-17.556c0.369-1.143,0.176-2.354-0.53-3.324c-0.707-0.971-1.801-1.527-3.001-1.527h-2.244c-2.544,0-4.963,0.829-6.951,2.26
	l5.583-13.26H59c0.553,0,1-0.447,1-1S59.553,9.852,59,9.852z M20.044,6.685c0.671-0.237,1.436-0.333,2.24-0.333
	c1.92,0,4.068,0.548,5.704,1.029c1.334,0.394,1.626,0.395,2.606,0.013c0.171-0.066,0.38-0.147,0.646-0.239
	c0.101-0.034,0.199-0.076,0.3-0.119l0.098-0.042c3.039-1.258,6.368-1.11,8.688,0.381c1.899,1.222,3.175,2.76,3.59,4.33
	c1.3,4.914-0.121,10.817-1.374,16.024c-0.118,0.49-0.224,0.957-0.338,1.435l-0.126,0.3c-0.068,0.161-0.076,0.326-0.059,0.488
	c-0.046,0.2-0.099,0.412-0.143,0.609l-0.168,0.757l-0.003,0.014c-0.206,0.934-0.422,1.901-0.689,2.896
	c-0.353,1.289-0.788,2.521-1.443,3.669c-0.427,0.748-0.695,0.851-0.69,0.855c-0.084-0.02-0.808-0.295-1.962-3.854
	c-0.171-0.525-0.315-1.083-0.464-1.65c-0.586-2.245-1.251-4.79-3.578-6.176c-2.606-1.553-5.529-0.613-7.625,2.453
	c-1.129,1.652-1.749,3.47-2.348,5.228c-0.23,0.677-0.462,1.354-0.723,2.024c-0.364,0.934-0.681,1.646-1.286,2.024
	c-0.229-0.147-0.672-0.69-1.422-2.518l-0.078-0.188c-0.042-0.101-0.076-0.207-0.117-0.309l-0.008-0.027
	c-0.136-0.339-0.267-0.687-0.395-1.039c-0.016-0.045-0.035-0.089-0.051-0.135c-0.135-0.376-0.266-0.761-0.394-1.155
	c-0.02-0.063-0.04-0.126-0.06-0.189c-0.254-0.799-0.495-1.634-0.723-2.521l-0.01-0.025c-0.939-3.661-1.504-7.484-2.049-11.226
	c-0.116-0.795-0.231-1.586-0.349-2.37C14.624,12.982,15.868,8.166,20.044,6.685z M38.271,40.629c-1.828,1.992-4.442,3.223-7.3,3.223
	h-1.941c-2.848,0-5.47-1.238-7.302-3.237c1.381-0.74,1.945-2.15,2.319-3.111c0.271-0.696,0.513-1.402,0.752-2.105
	c0.582-1.706,1.131-3.317,2.105-4.744c0.703-1.029,2.593-3.271,4.951-1.863c1.623,0.966,2.13,2.907,2.667,4.963
	c0.158,0.605,0.314,1.201,0.496,1.762C35.759,37.8,36.728,40.127,38.271,40.629z M53.032,24.852h2.244
	c0.554,0,1.058,0.257,1.384,0.704c0.325,0.447,0.415,1.006,0.244,1.533l-5.663,17.557c-1.775,5.506-6.856,9.206-12.643,9.206H21.401
	c-5.786,0-10.867-3.7-12.643-9.206L3.095,27.088c-0.17-0.528-0.08-1.092,0.249-1.544c0.317-0.438,0.805-0.69,1.337-0.692
	c0.015,0,0.027,0,0.042,0c4.577,0,8.782,2.476,11.016,6.479c0.221,0.851,0.465,1.694,0.732,2.528
	c0.023,0.072,0.046,0.146,0.069,0.217c0.258,0.792,0.537,1.575,0.844,2.347c1.168,5.469,6.05,9.428,11.645,9.428h1.941
	c5.714,0,10.636-4.073,11.703-9.686l0.252-1.341c0.006-0.021,0.01-0.042,0.016-0.063c0.132-0.48,0.252-0.961,0.365-1.443
	c0.01-0.043,0.02-0.085,0.03-0.128c0.105-0.454,0.207-0.908,0.306-1.359l0.081-0.364l0.058-0.262
	C45.241,27.403,48.95,24.852,53.032,24.852z" fill="#fff"/>
<g>
</g>
<g>
</g>
<g>
</g>
<g>
</g>
<g>
</g>
<g>
</g>
<g>
</g>
<g>
</g>
<g>
</g>
<g>
</g>
<g>
</g>
<g>
</g>
<g>
</g>
<g>
</g>
<g>
</g>
</svg>
